<svg width="277" height="277" viewBox="0 0 277 277" fill="none" xmlns="http://www.w3.org/2000/svg">
<g clip-path="url(#clip0_14_2)">
<g filter="url(#filter0_i_14_2)">
<path d="M164.405 20.9355C165.625 20.545 166.914 20.4151 168.188 20.5537C169.461 20.6923 170.691 21.0964 171.799 21.7402C172.906 22.3842 173.867 23.2537 174.617 24.292C175.368 25.3303 175.892 26.5149 176.156 27.7686C176.42 29.0221 176.418 30.3175 176.15 31.5703C175.885 32.8133 175.362 33.9864 174.618 35.0166C174.616 35.0198 174.615 35.0241 174.612 35.0283C174.602 35.0467 174.586 35.0745 174.564 35.1113C174.522 35.185 174.458 35.295 174.375 35.4404C174.209 35.7312 173.967 36.1628 173.661 36.7227C173.049 37.8424 172.18 39.4761 171.161 41.5293C170.455 42.951 169.679 44.5747 168.863 46.3662H196.53C198.959 46.3662 201.288 47.3309 203.005 49.0479C204.722 50.765 205.687 53.0941 205.687 55.5225C205.687 57.9508 204.722 60.2799 203.005 61.9971C201.288 63.7141 198.959 64.6787 196.53 64.6787H163.204C162.768 64.6787 162.334 64.6461 161.907 64.585C158.704 75.0794 156.545 86.986 157.973 97.9668C158.708 98.1646 159.562 98.3763 160.534 98.584C164.266 99.3812 169.732 100.136 176.814 99.959C190.976 99.6041 211.628 95.5181 237.832 80.5381C238.883 79.9364 240.042 79.5491 241.243 79.3984C242.444 79.2478 243.664 79.3366 244.83 79.6602C245.997 79.9837 247.087 80.5354 248.039 81.2832C248.991 82.0308 249.785 82.9602 250.375 84.0166H250.376C251.562 86.1301 251.862 88.6278 251.21 90.9619C250.56 93.2886 249.016 95.2623 246.916 96.4561C230.461 106.829 212.157 113.779 193.094 116.97C209.331 121.192 228.376 122.697 250.17 121.417L250.624 121.4C252.894 121.377 255.098 122.197 256.805 123.71C258.624 125.324 259.728 127.595 259.874 130.022C260.02 132.451 259.195 134.837 257.581 136.657C255.967 138.477 253.697 139.582 251.269 139.728H251.263C245.891 139.987 240.602 140.161 235.57 140.161C221.466 140.161 208.437 138.948 196.507 136.535C197.607 138.028 198.476 139.692 199.069 141.474C200.264 145.058 200.288 148.929 199.138 152.527C197.988 156.126 195.723 159.266 192.672 161.493C189.811 163.581 186.397 164.766 182.868 164.904L182.161 164.918H141.097C137.917 178.722 132.821 212.972 149.807 241.982L150.216 242.673L150.218 242.677C151.435 244.746 151.791 247.211 151.209 249.54C150.627 251.869 149.152 253.876 147.104 255.129L147.097 255.135L147.088 255.139C145.639 255.95 144.011 256.389 142.351 256.415H142.343C140.754 256.415 139.192 256 137.812 255.214C136.431 254.427 135.278 253.295 134.468 251.928V251.927C121.027 229.523 118.576 205.242 119.618 186.312C120.139 176.845 121.534 168.707 122.87 162.799C123.538 159.844 124.192 157.445 124.715 155.715C125.213 154.065 125.604 152.984 125.78 152.624C126.398 150.82 127.563 149.254 129.113 148.144C130.674 147.027 132.546 146.428 134.465 146.433H181.04L101.105 89.0693L101.032 89.1426L109.566 110.478L109.568 110.481C110.4 112.617 110.401 114.987 109.57 117.123C108.742 119.252 107.148 120.993 105.103 122.007C83.7173 135.195 66.0429 153.613 53.7451 175.522C41.4435 197.439 34.928 222.128 34.8125 247.261C34.8119 249.688 33.8475 252.017 32.1309 253.733C30.4137 255.45 28.0846 256.415 25.6562 256.415C23.2279 256.415 20.8988 255.45 19.1816 253.733C17.4646 252.016 16.5001 249.687 16.5 247.259V247.258L16.5059 245.986C16.7402 219.3 23.4189 193.057 35.9814 169.497C48.6798 145.682 67.0044 125.333 89.3574 110.216L83.54 95.7988L83.2842 95.1709C82.0673 92.0131 81.7741 88.5686 82.4453 85.2422C83.1614 81.6942 84.9411 78.4486 87.5479 75.9375C90.0859 73.3844 93.3198 71.6345 96.8457 70.9072C100.37 70.1804 104.03 70.5071 107.369 71.8457C108.074 72.1034 108.732 72.4778 109.313 72.9521L118.513 79.5479C117.143 76.6939 115.9 73.7752 114.79 70.7988C109.906 57.7009 107.685 43.76 108.257 29.793V29.7842L108.258 29.7744C108.445 27.3604 109.581 25.1187 111.417 23.54C113.138 22.0601 115.344 21.2758 117.603 21.3291L118.056 21.3506L118.057 21.3516C119.26 21.444 120.435 21.7735 121.511 22.3213C122.586 22.8691 123.543 23.624 124.326 24.543C125.109 25.4619 125.702 26.5266 126.072 27.6758C126.439 28.8159 126.577 30.0172 126.481 31.2109C126.009 48.9196 130.894 66.2278 140.31 80.9512C141.416 71.2495 143.888 61.8822 146.674 53.7168C149.344 45.8922 152.305 39.1537 154.643 34.2588C155.811 31.8111 156.825 29.8242 157.567 28.3926C157.935 27.683 158.244 27.0936 158.461 26.6758C158.69 26.2346 158.812 25.9924 158.842 25.9131L158.847 25.8994L158.854 25.8857C159.381 24.7183 160.147 23.6738 161.104 22.8213C162.06 21.9687 163.185 21.3262 164.405 20.9355Z" stroke="white"/>
</g>
</g>
<rect x="0.5" y="0.5" width="276" height="276" stroke="white"/>
<defs>
<filter id="filter0_i_14_2" x="16" y="20" width="256.391" height="248.915" filterUnits="userSpaceOnUse" color-interpolation-filters="sRGB">
<feFlood flood-opacity="0" result="BackgroundImageFix"/>
<feBlend mode="normal" in="SourceGraphic" in2="BackgroundImageFix" result="shape"/>
<feColorMatrix in="SourceAlpha" type="matrix" values="0 0 0 0 0 0 0 0 0 0 0 0 0 0 0 0 0 0 127 0" result="hardAlpha"/>
<feOffset dx="12" dy="12"/>
<feGaussianBlur stdDeviation="6"/>
<feComposite in2="hardAlpha" operator="arithmetic" k2="-1" k3="1"/>
<feColorMatrix type="matrix" values="0 0 0 0 0 0 0 0 0 0 0 0 0 0 0 0 0 0 0.24 0"/>
<feBlend mode="normal" in2="shape" result="effect1_innerShadow_14_2"/>
</filter>
<clipPath id="clip0_14_2">
<rect width="277" height="277" fill="white"/>
</clipPath>
</defs>
</svg>
